<?xml version="1.0" encoding="utf-8"?>
<!-- Generator: Adobe Illustrator 23.0.0, SVG Export Plug-In . SVG Version: 6.00 Build 0)  -->
<svg version="1.1" id="Layer_1" xmlns="http://www.w3.org/2000/svg" xmlns:xlink="http://www.w3.org/1999/xlink" x="0px" y="0px"
	 viewBox="0 0 443.43 573.85" style="enable-background:new 0 0 443.43 573.85;" xml:space="preserve">
<style type="text/css">
	.st0{fill-rule:evenodd;clip-rule:evenodd;fill:#005B8A;}
</style>
<path class="st0" d="M197.72,140.3c-1.35,2.05-2.52,4.37-3.49,6.97l5.92,0.24C199.6,144.98,198.79,142.57,197.72,140.3
	 M238.98,151.9c0.62-2.14,0.51-3.95-0.33-5.44c-0.83-1.44-2.19-2.36-4.09-2.77l-0.98-0.21c-0.19-0.04-0.61-0.08-1.26-0.12
	l-3.39,11.73c-0.24,0.84,0.22,1.38,1.39,1.64l0.81,0.18c1.74,0.38,3.35,0.08,4.85-0.9C237.46,155.05,238.46,153.69,238.98,151.9z
	 M245.09,152.6c-0.97,3.37-2.87,5.92-5.68,7.66c-2.78,1.72-5.79,2.23-9.05,1.52l-1.95-0.43c-4.72-1.03-6.58-3.29-5.57-6.78
	l4.72-16.34c0.74-0.07,1.81-0.08,3.2-0.01c1.41,0.1,2.55,0.24,3.42,0.43l2.44,0.53c3.12,0.68,5.51,2.14,7.17,4.39
	C245.67,146.1,246.1,149.11,245.09,152.6z M274.05,164.98c-1.9,1.57-3.45,2.81-4.64,3.72c-1.92,1.42-3.79,2.67-5.61,3.73l-0.68-0.28
	c-1.57-0.65-2.47-1.77-2.72-3.35c-0.71-7.61,0.17-15.03,2.65-22.25l3.15,1.3c0.94,0.39,1.56,0.95,1.88,1.7
	c0.31,0.69,0.33,1.44,0.06,2.25l0.02-0.03c-1.27,4.24-1.95,8.51-2.03,12.83c4.5-3.58,8.38-7.56,11.65-11.96l2.88,1.19
	c0.71,0.29,1.19,0.73,1.44,1.31c0.25,0.58,0.19,1.22-0.17,1.91c-0.3,0.58-1.29,1.71-2.95,3.41
	C277.25,162.21,275.61,163.71,274.05,164.98z M300.01,189.11c-0.74,0.91-1.58,1.35-2.53,1.33c-1.11-0.03-2.57-0.63-4.37-1.81
	l-2.06-1.34c-5.13-3.35-5.7-7.48-1.7-12.41l2.66-3.28c1.54-1.9,3.03-3.5,4.49-4.83c1.99-1.82,3.98-2.08,5.96-0.79l10.64,6.93
	l-1.33,1.64c-1.25,1.55-2.92,1.64-4.99,0.29l-6.25-4.07c-0.45,0.43-0.96,0.95-1.52,1.56c-0.42,0.48-0.88,1-1.37,1.56l7.5,4.89
	l-1.38,1.7c-1.12,1.38-2.63,1.45-4.52,0.22l-4.66-3.04l-0.5,0.62c-1.07,1.32-1.51,2.37-1.32,3.16c0.16,0.73,0.94,1.56,2.34,2.47
	l1.22,0.79c1.48,0.97,3.21,1.83,5.19,2.58L300.01,189.11z M327.99,192.17c-0.13-0.13-0.3-0.28-0.51-0.44
	c-0.23-0.18-0.44-0.35-0.63-0.5l-3.99,3.33c0.35,0.42,0.97,1.06,1.86,1.93c0.58,0.57,1.23,0.9,1.94,0.99
	c0.79,0.09,1.48-0.11,2.09-0.62c1.45-1.22,1.5-2.49,0.15-3.81L327.99,192.17z M321.5,211.93c-0.89-0.01-1.75-0.41-2.58-1.22
	c-1.37-1.34-1.69-2.76-0.93-4.24l2.02-3.9c0.49-0.95,0.71-1.72,0.66-2.29c-0.04-0.38-0.24-0.79-0.59-1.25
	c-0.22-0.29-0.38-0.5-0.47-0.63l-0.03-0.03c-0.07-0.11-0.14-0.21-0.19-0.3l-0.03-0.08l-0.06-0.06c-0.04-0.07-0.1-0.16-0.2-0.25
	l-7.17,5.99l-1.44-1.41c-1.75-1.71-1.67-3.36,0.24-4.96l15.3-12.79c0.62,0.27,1.53,0.82,2.74,1.65c1.16,0.84,2.06,1.56,2.68,2.16
	l1.81,1.77c1.73,1.69,2.61,3.49,2.62,5.39c0,1.88-0.82,3.51-2.47,4.88c-1.14,0.95-2.42,1.57-3.85,1.83
	c-1.38,0.27-2.67,0.15-3.85-0.37c0.07,0.97-0.2,2.03-0.8,3.18c-0.83,1.68-1.5,3.03-2.03,4.06c-0.24,0.44-0.41,0.86-0.51,1.25
	c-0.05,0.14-0.09,0.28-0.14,0.43l-0.04,0.19l-0.04,0.19l-0.14,0.37L321.5,211.93z M357.96,224.08c-0.65,0.36-1.45,0.46-2.39,0.28
	c-1.02-0.19-1.77-0.65-2.25-1.35l-1.99-2.96l-17.14,9.57l-1.3-1.93c-1.21-1.8-0.71-3.32,1.51-4.55l13.82-7.71l-3.59-5.34l1.88-1.05
	c0.7-0.39,1.46-0.51,2.29-0.35c0.97,0.17,1.74,0.67,2.3,1.5l8.66,12.89L357.96,224.08z M345.36,248.85
	c-0.35-0.77-0.36-1.54-0.02-2.33c0.38-0.89,1.12-1.55,2.21-1.97l19.94-7.8l1.06,2.29c0.31,0.67,0.32,1.38,0.02,2.13
	c-0.3,0.8-0.87,1.37-1.7,1.69l-20.56,8.04L345.36,248.85z M363.97,277.03c-2.53,0.62-4.75,0.38-6.65-0.72
	c-1.94-1.12-3.29-3.02-4.04-5.7c-0.63-2.24-0.63-4.1,0.01-5.56c0.57-1.39,1.66-2.28,3.26-2.68l3.45-0.77
	c-1.55,2.75-2.04,5.16-1.47,7.21c0.68,2.44,1.86,3.46,3.51,3.05c0.68-0.17,1.11-0.55,1.29-1.14c0.24-0.71,0.32-2.09,0.24-4.13
	c-0.15-4.27,1.49-6.82,4.92-7.66c2.23-0.55,4.34-0.27,6.34,0.83c2.11,1.2,3.52,3.07,4.23,5.61c0.68,2.44,0.66,4.38-0.07,5.81
	c-0.6,1.16-1.57,1.91-2.9,2.24l-3.56,0.68c1.57-2.26,2.05-4.49,1.44-6.69c-0.74-2.64-1.92-3.75-3.56-3.35
	c-0.57,0.14-0.95,0.56-1.13,1.25c-0.2,0.75-0.26,2.04-0.18,3.88C369.27,273.55,367.56,276.15,363.97,277.03z M358.67,295.52
	c-0.09-0.83,0.14-1.58,0.72-2.25c0.65-0.76,1.56-1.2,2.73-1.33l21.46-2.38l0.28,2.49c0.08,0.73-0.14,1.41-0.66,2.06
	c-0.54,0.7-1.26,1.09-2.15,1.19l-22.13,2.45L358.67,295.52z M358.22,328.66c0.11-1.16,0.56-2.15,1.34-2.96
	c1.12-1.12,3.11-2.25,5.98-3.37c6.42-2.47,9.72-3.74,9.9-3.81l-16.13-0.99l0.22-2.27c0.08-0.83,0.47-1.53,1.17-2.1
	c0.76-0.64,1.73-0.92,2.91-0.85l21.54,1.32l-0.26,2.69c-0.28,2.85-2.24,4.97-5.89,6.34c-0.61,0.22-1.36,0.49-2.23,0.81l-1.18,0.46
	l-1.18,0.42c-2.01,0.74-3.64,1.35-4.9,1.83l14.33,0.88l-0.24,2.46c-0.07,0.71-0.47,1.34-1.2,1.91c-0.73,0.59-1.56,0.86-2.48,0.8
	L358,330.89L358.22,328.66z M355.46,364.13c-4.29-1.03-5.63-4.06-4.05-9.1c0.97-3.06,2.9-5.37,5.8-6.93
	c3.02-1.67,6.38-2.06,10.07-1.17c3.69,0.89,6.4,2.69,8.12,5.42c1.8,2.85,2.12,6.11,0.96,9.78c-0.63,2-1.68,3.44-3.14,4.3
	c-1.29,0.77-2.6,0.99-3.95,0.67l-2.18-0.52c1.99-1.89,3.34-3.97,4.06-6.25c0.56-1.78,0.38-3.42-0.54-4.9
	c-0.92-1.48-2.38-2.47-4.38-2.95c-2.59-0.62-4.73-0.5-6.42,0.35c-1.5,0.8-2.54,2.13-3.13,3.98c-0.42,1.34-0.1,2.15,0.98,2.4
	l1.86,0.45c1.16,0.28,2.53,0.45,4.1,0.51l-0.89,2.82c-0.22,0.68-0.7,1.24-1.44,1.67c-0.74,0.4-1.43,0.53-2.07,0.37L355.46,364.13z
	 M205.21,157.86c-1.12-0.05-2.01-0.35-2.67-0.91c-0.61-0.51-0.93-1.11-0.96-1.83l-0.08-0.69c-0.04-0.23-0.06-0.47-0.07-0.73
	l-0.02-0.3l-0.02-0.27c-0.03-0.38-0.07-0.73-0.14-1.03l-8.69-0.35c-0.65,1.95-1.19,3.79-1.62,5.52l-2.39-0.1
	c-1.88-0.08-2.75-1-2.62-2.77c0.13-1.82,1.32-5.07,3.57-9.74c2.39-5.05,4.54-8.43,6.46-10.15l2.22,0.09
	c1.96,0.08,3.39,0.91,4.28,2.49c1.04,1.97,2.12,4.99,3.26,9.07c1.19,4.46,1.92,8.39,2.18,11.8L205.21,157.86z M261.84,385.98
	c16.93,30.32,22.44,40.47,14.18,89.87c5.35-2.38,1.84-0.12,5.21-3.52c0.92-0.92,1.54-2.08,2.26-3.24
	c34.53-55.67,5.9-94.24-34.31-142.03c-25.86-30.75-55.16-59.9-80.28-90.49c-7.61-9.26-14.8-19.82-20.77-31.02
	c-8.78-16.46-5.93-28.49-10.85-39.38c-13.88,54.39-7.3,59.97,33.79,109.65C201.43,312.56,237.85,345.71,261.84,385.98z
	 M302.63,418.56c1.72-1.92,3.53-3.93,5.47-6.05c33.43-36.56,27.98-16.44,25.42-56.96c-2.19-34.56-46.08-20.39-61.19-5.5
	c2.77,3.64,5.4,7.26,7.89,10.87c0.6,0.84,1.2,1.72,1.79,2.64c1.19,1.78,2.34,3.57,3.45,5.35c12-8.29,21.8-11.61,40.1-4.59
	c-1.53,2.99-17.35,18.4-21.61,22.98c-2.15,2.31-4.18,4.49-6.13,6.62C300.65,401.94,302.35,410.11,302.63,418.56z M185.99,425.6
	c8.46,10.53,15.87,22.15,21.71,35.79c7.19,16.79,5.07,23.18,3.13,33.66h10.24c2.84-4.42,6.1-9.24,10.91-12.95l2.96,12.95h7.9
	c5.8-7.47,13.23-18.57,16.71-22.98c6.42-8.13,11.39-14.65,15.96-20.59c0.33-3.92,0.52-7.82,0.53-11.69
	c0.01-6.14-0.52-12.04-1.91-17.95c-3.73,4.43-7.39,8.79-10.84,13.31c-5.96,7.8-12.01,16.08-18.61,23.28
	c-2.08-7.24,0.28-13.29-4.5-18.46c-5.26,6-9.99,12.44-15.26,18.57c-0.16-0.28-0.69,0.66-1.07,0.97
	c-1.78-15.41-11.43-32.57-23.63-48.55C196.1,416.3,191.33,421.2,185.99,425.6z M167.11,374.77c-25.4-23.81-54.96-51.84-73.94-84.81
	c-26.02-45.2-26.02-97.39,24.65-126.91c16.2-9.44,16.84-1.56,14.29-14.63c-26.52,2.87-53.21,30.47-62.5,49.44
	c-22.44,45.86-8.79,87.41,17.07,124.4c25.07,35.87,55.05,57.78,80.38,82.66c3.08-3.54,5.91-7.34,8.48-11.39
	c1.37-2.15,2.61-4.41,3.75-6.75C175.15,382.49,171.03,378.46,167.11,374.77z M177.98,438.83c7.55,0,13.66,5.92,13.66,13.22
	c0,7.3-6.12,13.22-13.66,13.22c-7.55,0-13.66-5.92-13.66-13.22C164.31,444.75,170.43,438.83,177.98,438.83z M177.98,470.62
	c7.55,0,13.66,5.92,13.66,13.22c0,7.3-6.12,13.22-13.66,13.22c-7.55,0-13.66-5.92-13.66-13.22
	C164.31,476.54,170.43,470.62,177.98,470.62z M255.72,441.01c1.85-20.3,2.39-24.77,5.72-35.36c3.48-11.05,0.52-14.44-8.27-26.94
	C245.95,391.52,244.78,431.16,255.72,441.01z M200.92,314.9c-4.32,29.49-10.61,62.1-22.07,80.11
	c-31.02,48.74-88.55,47.87-101.5,52.98c6.56,4.43,39.5,0.54,49.82-0.99c41.14-6.08,74.3-29.54,84.59-67.28
	c2.08-13.35,4.18-30.32,5.84-46.29C212.11,327.21,206.52,321.05,200.92,314.9z M252.51,212.39l-7.68-23.37
	c-3.71,1.36-8.02,4.36-11.67,8.16l0,0c-0.21-0.27-0.65,0.24-1.22,1.33c-10.28,11.77-21.33,47.78-25.26,74.22l-0.2,1.38
	c4.82,5.27,9.66,10.54,14.48,15.81C223.05,256.12,229.68,235.09,252.51,212.39z M195.56,325.2c-35.92-37.1-78.02-76.81-74.24-112.28
	c0.04-0.33,0.51-3.86,0.5-4.2c-0.16-6.23,0.01-2.89-1.19-4.74c-13.6,19.97-10.5,47.69-0.11,67.27
	c13.1,24.68,43.56,53.64,69.95,80.84c1.53-6.75,2.83-13.55,4-20.32C194.84,329.58,195.2,327.39,195.56,325.2z M238.36,427.4
	c3.42-5.35,6.04-29.57,4.92-36.06c-1.75-10.14-9.97-22.38-15.37-29.61c-2.61-3.5-5.47-7.05-8.51-10.64
	c-1.12,9.49-2.37,18.98-3.83,28.43c9.07,10.91,15.99,21.09,19.03,30.06C236.88,416.32,235.46,424.42,238.36,427.4z M214.7,225.21
	c-37.99-43.73-79.92-94.41-59.51-132.34c2.05-3.81,4.49-7.1,7.2-9.91v-6.17c-17.2,11.9-29.73,34.22-25.4,64.39
	c5.61,39.03,42.56,77.39,62.45,100.47c2.66,3.09,5.28,6.04,7.84,8.87c0.38-1.56,0.77-3.11,1.17-4.66
	C210.25,238.97,212.3,232.03,214.7,225.21z M266.36,340.48c10.51-14.47,0.9-45.51-6.68-58.73c-5.9-10.29-15.47-22.26-26.55-35.26
	c-3.28,7.92-5.3,16.1-6.6,24.82C244.77,291.14,258.88,308.93,266.36,340.48z"/>
</svg>
